# xmcd
# Track frame offsets:
# 150
# 13373
# 26043
# 37265
# 49894
# 62080
# 75658
# 86931
# 98410
# 109827
#
# Disc length: 1620 seconds
# Revision: 0
# Processed by: cddbd v1.4PL0 Copyright (c) Steve Scherf et al.
# Submitted via: VisiTrax 2.9.5.180 - For more info visit www.synapsa.com
#
DISCID=8406520a
DTITLE=Dale McKay - Streets of gold
DYEAR=1998
DGENRE=
TTITLE0=Streets of gold
TTITLE1=The locket
TTITLE2=Night lights and music
TTITLE3=My Favourite moment
TTITLE4=My heart belongs to you
TTITLE5=Let me tell you where to go
TTITLE6=A light in the window
TTITLE7=I've got the blues again
TTITLE8=Honky tonkin heart
TTITLE9=This old TV show
EXTD=
EXTT0=
EXTT1=
EXTT2=
EXTT3=
EXTT4=
EXTT5=
EXTT6=
EXTT7=
EXTT8=
EXTT9=
PLAYORDER=
